<mxfile host="65bd71144e">
    <diagram id="4DKl3oDkkI_vc09gIpEB" name="Page-1">
        <mxGraphModel dx="1980" dy="1760" grid="1" gridSize="10" guides="1" tooltips="1" connect="1" arrows="1" fold="1" page="1" pageScale="1" pageWidth="850" pageHeight="1100" math="0" shadow="0">
            <root>
                <mxCell id="0"/>
                <mxCell id="1" parent="0"/>
                <mxCell id="2" value="" style="shape=mxgraph.mockup.containers.marginRect;rectMarginTop=10;strokeWidth=1;dashed=0;rounded=1;arcSize=5;recursiveResize=0;html=1;whiteSpace=wrap;fillColor=#f5f5f5;strokeColor=none;fontColor=#333333;" vertex="1" parent="1">
                    <mxGeometry x="-10" y="-10" width="320" height="410" as="geometry"/>
                </mxCell>
                <mxCell id="6" value="JUICE" style="text;html=1;align=center;verticalAlign=middle;resizable=0;points=[];autosize=1;strokeColor=none;fillColor=none;fontColor=light-dark(#ffd84d, #ededed);fontSize=37;" vertex="1" parent="1">
                    <mxGeometry x="85" width="130" height="60" as="geometry"/>
                </mxCell>
            </root>
        </mxGraphModel>
    </diagram>
</mxfile>